HIERARCHY
ROOT root
{
	OFFSET	0	13.1	24.9
	CHANNELS 6  Xposition Yposition Zposition Xrotation Yrotation Zrotation
	JOINT spine_1
	{
		OFFSET	0	9.99999	0
		CHANNELS 3  Xrotation Yrotation Zrotation
		JOINT spine_2
		{
			OFFSET	0	112	-10
			CHANNELS 3  Xrotation Yrotation Zrotation
			JOINT spine_3
			{
				OFFSET	0	206.5	19.3
				CHANNELS 3  Xrotation Yrotation Zrotation
				JOINT spine_4
				{
					OFFSET	0	110.4	14.6
					CHANNELS 3  Xrotation Yrotation Zrotation
					JOINT neck_1
					{
						OFFSET	0	71.8	-50.3
						CHANNELS 3  Xrotation Yrotation Zrotation
						JOINT neck_2
						{
							OFFSET	0	86.2	-25.8
							CHANNELS 3  Xrotation Yrotation Zrotation
							JOINT head_ee
							{
								OFFSET	0	179.8	-8.7
								CHANNELS 3  Xrotation Yrotation Zrotation
								End Site
								{
									OFFSET	1	0	0
								}
							}
						}
					}
					JOINT left_clavicle
					{
						OFFSET	-43.2	22.4	-70.8
						CHANNELS 3  Xrotation Yrotation Zrotation
						JOINT left_shoulder
						{
							OFFSET	-93.9	-5.79999	48.7
							CHANNELS 3  Xrotation Yrotation Zrotation
							JOINT left_elbow
							{
								OFFSET	-291.4	-30.8	15.2
								CHANNELS 3  Xrotation Yrotation Zrotation
								JOINT left_lowarm_twist
								{
									OFFSET	-110.7	-3.89999	13.6
									CHANNELS 3  Xrotation Yrotation Zrotation
									JOINT left_hand
									{
										OFFSET	-110.7	-3.89999	13.6
										CHANNELS 3  Xrotation Yrotation Zrotation
										JOINT left_ee
										{
											OFFSET	-80.8	-5.10001	12.1
											CHANNELS 3  Xrotation Yrotation Zrotation
											End Site
											{
												OFFSET	1	0	0
											}
										}
									}
								}
							}
						}
					}
					JOINT right_clavicle
					{
						OFFSET	43.2	22.4	-70.8
						CHANNELS 3  Xrotation Yrotation Zrotation
						JOINT right_shoulder
						{
							OFFSET	93.9	-5.79999	48.7
							CHANNELS 3  Xrotation Yrotation Zrotation
							JOINT right_elbow
							{
								OFFSET	291.4	-30.8	15.2
								CHANNELS 3  Xrotation Yrotation Zrotation
								JOINT right_lowarm_twist
								{
									OFFSET	110.7	-3.89999	13.6
									CHANNELS 3  Xrotation Yrotation Zrotation
									JOINT right_hand
									{
										OFFSET	110.7	-3.89999	13.6
										CHANNELS 3  Xrotation Yrotation Zrotation
										JOINT right_ee
										{
											OFFSET	80.8	-5.10001	12.1
											CHANNELS 3  Xrotation Yrotation Zrotation
											End Site
											{
												OFFSET	1	0	0
											}
										}
									}
								}
							}
						}
					}
				}
			}
		}
	}
	JOINT left_hip
	{
		OFFSET	-82.8	-127.5	0.300001
		CHANNELS 3  Xrotation Yrotation Zrotation
		JOINT left_knee
		{
			OFFSET	-28.2	-396.7	2.2
			CHANNELS 3  Xrotation Yrotation Zrotation
			JOINT left_ankle
			{
				OFFSET	-11.7	-411.3	35.4
				CHANNELS 3  Xrotation Yrotation Zrotation
				JOINT left_toes
				{
					OFFSET	0	-60	-88.6
					CHANNELS 3  Xrotation Yrotation Zrotation
					JOINT left_foot_ee
					{
						OFFSET	-22.5	-16.5	-42.2
						CHANNELS 3  Xrotation Yrotation Zrotation
						End Site
						{
							OFFSET	1	0	0
						}
					}
				}
			}
		}
	}
	JOINT right_hip
	{
		OFFSET	82.8	-127.5	0.300001
		CHANNELS 3  Xrotation Yrotation Zrotation
		JOINT right_knee
		{
			OFFSET	28.2	-396.7	2.2
			CHANNELS 3  Xrotation Yrotation Zrotation
			JOINT right_ankle
			{
				OFFSET	11.7	-411.3	35.4
				CHANNELS 3  Xrotation Yrotation Zrotation
				JOINT right_toes
				{
					OFFSET	0	-60	-88.6
					CHANNELS 3  Xrotation Yrotation Zrotation
					JOINT right_foot_ee
					{
						OFFSET	22.5	-16.5	-42.2
						CHANNELS 3  Xrotation Yrotation Zrotation
						End Site
						{
							OFFSET	1	0	0
						}
					}
				}
			}
		}
	}
}
MOTION
Frames: 15
Frame Time: 0.02
3574.42 741.953 -1474.73 160.581437245 79.7014325975 -158.674870531 -0.136488 0.077683 -1.10779 -0.135817 0.148013 -1.1006 -0.138428 0.378601 -1.04399 -0.139888 0.208982 -1.09067 -1.93602 -3.96987 1.63761 -1.8833 -8.46468 1.20698 -0.0 0.0 -0.0 4.08238 4.17749 8.05744 8.64646 -27.7548 67.8989 1.16838 -30.0603 0.313735 -7.41321 -0.319412 0.89159 1.5753 12.5529 15.2982 -0.0 0.0 -0.0 -2.01637 -11.3311 2.07876 -4.61919 19.4339 -75.2313 0.185063 5.23806 -0.00846522 -0.817274 0.0295123 -0.100198 0.519096 -12.7931 -8.55998 0.0 0.0 0.0 1.77414 27.1505 -8.16021 -13.2584 0.315031 2.00577 40.1295 9.62866 -4.88515 -16.4988 0.0 0.0 -0.0 0.0 -0.0 -3.82167 12.2682 -7.4534 -4.3519 -0.154558 -0.649843 36.2961 -0.514012 4.53905 -24.8596 0.0 0.0 0.0 0.0 0.0 
3574.42 741.953 -1474.73 159.442140963 80.254966095 -157.51793575 -0.136488 0.077683 -1.10779 -0.135817 0.148013 -1.1006 -0.138428 0.378601 -1.04399 -0.139888 0.208982 -1.09067 -1.93602 -3.96987 1.63761 -1.8833 -8.46468 1.20698 -0.0 0.0 -0.0 4.08238 4.17749 8.05744 8.64646 -27.7548 67.8989 1.16838 -30.0603 0.313735 -7.41321 -0.319412 0.89159 1.5753 12.5529 15.2982 -0.0 0.0 -0.0 -2.01637 -11.3311 2.07876 -4.61919 19.4339 -75.2313 0.185063 5.23806 -0.00846522 -0.817274 0.0295123 -0.100198 0.519096 -12.7931 -8.55998 0.0 0.0 0.0 1.77414 27.1505 -8.16021 -13.2584 0.315031 2.00577 40.1295 9.62866 -4.88515 -16.4988 0.0 0.0 -0.0 0.0 -0.0 -3.82167 12.2682 -7.4534 -4.3519 -0.154558 -0.649843 36.2961 -0.514012 4.53905 -24.8596 0.0 0.0 0.0 0.0 0.0 
3574.42 741.953 -1474.73 157.472464827 81.0752020363 -155.521881663 -0.136488 0.077683 -1.10779 -0.135817 0.148013 -1.1006 -0.138428 0.378601 -1.04399 -0.139888 0.208982 -1.09067 -1.93602 -3.96987 1.63761 -1.8833 -8.46468 1.20698 -0.0 0.0 -0.0 4.08238 4.17749 8.05744 8.64646 -27.7548 67.8989 1.16838 -30.0603 0.313735 -7.41321 -0.319412 0.89159 1.5753 12.5529 15.2982 -0.0 0.0 -0.0 -2.01637 -11.3311 2.07876 -4.61919 19.4339 -75.2313 0.185063 5.23806 -0.00846522 -0.817274 0.0295123 -0.100198 0.519096 -12.7931 -8.55998 0.0 0.0 0.0 1.77414 27.1505 -8.16021 -13.2584 0.315031 2.00577 40.1295 9.62866 -4.88515 -16.4988 0.0 0.0 -0.0 0.0 -0.0 -3.82167 12.2682 -7.4534 -4.3519 -0.154558 -0.649843 36.2961 -0.514012 4.53905 -24.8596 0.0 0.0 0.0 0.0 0.0 
3574.42 741.953 -1474.73 154.408941732 82.0907436818 -152.425139397 -0.136488 0.077683 -1.10779 -0.135817 0.148013 -1.1006 -0.138428 0.378601 -1.04399 -0.139888 0.208982 -1.09067 -1.93602 -3.96987 1.63761 -1.8833 -8.46468 1.20698 -0.0 0.0 -0.0 4.08238 4.17749 8.05744 8.64646 -27.7548 67.8989 1.16838 -30.0603 0.313735 -7.41321 -0.319412 0.89159 1.5753 12.5529 15.2982 -0.0 0.0 -0.0 -2.01637 -11.3311 2.07876 -4.61919 19.4339 -75.2313 0.185063 5.23806 -0.00846522 -0.817274 0.0295123 -0.100198 0.519096 -12.7931 -8.55998 0.0 0.0 0.0 1.77414 27.1505 -8.16021 -13.2584 0.315031 2.00577 40.1295 9.62866 -4.88515 -16.4988 0.0 0.0 -0.0 0.0 -0.0 -3.82167 12.2682 -7.4534 -4.3519 -0.154558 -0.649843 36.2961 -0.514012 4.53905 -24.8596 0.0 0.0 0.0 0.0 0.0 
3574.42 741.953 -1474.73 149.87274051 83.1990788651 -147.851557306 -0.136488 0.077683 -1.10779 -0.135817 0.148013 -1.1006 -0.138428 0.378601 -1.04399 -0.139888 0.208982 -1.09067 -1.93602 -3.96987 1.63761 -1.8833 -8.46468 1.20698 -0.0 0.0 -0.0 4.08238 4.17749 8.05744 8.64646 -27.7548 67.8989 1.16838 -30.0603 0.313735 -7.41321 -0.319412 0.89159 1.5753 12.5529 15.2982 -0.0 0.0 -0.0 -2.01637 -11.3311 2.07876 -4.61919 19.4339 -75.2313 0.185063 5.23806 -0.00846522 -0.817274 0.0295123 -0.100198 0.519096 -12.7931 -8.55998 0.0 0.0 0.0 1.77414 27.1505 -8.16021 -13.2584 0.315031 2.00577 40.1295 9.62866 -4.88515 -16.4988 0.0 0.0 -0.0 0.0 -0.0 -3.82167 12.2682 -7.4534 -4.3519 -0.154558 -0.649843 36.2961 -0.514012 4.53905 -24.8596 0.0 0.0 0.0 0.0 0.0 
3574.42 741.953 -1474.73 143.16414221 84.3102794874 -141.10331612 -0.136488 0.077683 -1.10779 -0.135817 0.148013 -1.1006 -0.138428 0.378601 -1.04399 -0.139888 0.208982 -1.09067 -1.93602 -3.96987 1.63761 -1.8833 -8.46468 1.20698 -0.0 0.0 -0.0 4.08238 4.17749 8.05744 8.64646 -27.7548 67.8989 1.16838 -30.0603 0.313735 -7.41321 -0.319412 0.89159 1.5753 12.5529 15.2982 -0.0 0.0 -0.0 -2.01637 -11.3311 2.07876 -4.61919 19.4339 -75.2313 0.185063 5.23806 -0.00846522 -0.817274 0.0295123 -0.100198 0.519096 -12.7931 -8.55998 0.0 0.0 0.0 1.77414 27.1505 -8.16021 -13.2584 0.315031 2.00577 40.1295 9.62866 -4.88515 -16.4988 0.0 0.0 -0.0 0.0 -0.0 -3.82167 12.2682 -7.4534 -4.3519 -0.154558 -0.649843 36.2961 -0.514012 4.53905 -24.8596 0.0 0.0 0.0 0.0 0.0 
3574.42 741.953 -1474.73 131.056226824 85.4790921504 -128.948162932 -0.136488 0.077683 -1.10779 -0.135817 0.148013 -1.1006 -0.138428 0.378601 -1.04399 -0.139888 0.208982 -1.09067 -1.93602 -3.96987 1.63761 -1.8833 -8.46468 1.20698 -0.0 0.0 -0.0 4.08238 4.17749 8.05744 8.64646 -27.7548 67.8989 1.16838 -30.0603 0.313735 -7.41321 -0.319412 0.89159 1.5753 12.5529 15.2982 -0.0 0.0 -0.0 -2.01637 -11.3311 2.07876 -4.61919 19.4339 -75.2313 0.185063 5.23806 -0.00846522 -0.817274 0.0295123 -0.100198 0.519096 -12.7931 -8.55998 0.0 0.0 0.0 1.77414 27.1505 -8.16021 -13.2584 0.315031 2.00577 40.1295 9.62866 -4.88515 -16.4988 0.0 0.0 -0.0 0.0 -0.0 -3.82167 12.2682 -7.4534 -4.3519 -0.154558 -0.649843 36.2961 -0.514012 4.53905 -24.8596 0.0 0.0 0.0 0.0 0.0 
3566.17350698 740.604 -1474.48185927 106.599157595 86.1926931537 -104.502559587 -0.111633 0.0741484 -1.07539 -0.111 0.142424 -1.06849 -0.113439 0.365868 -1.01396 -0.114818 0.20115 -1.05901 -1.93769 -4.48963 1.24855 -1.88361 -9.09474 0.729499 -0.0 0.0 -0.0 3.77529 6.42815 7.5795 8.63248 -28.1938 68.057 1.31724 -33.1238 0.391749 -7.43007 -0.320269 0.89357 1.68917 9.47589 14.9675 -0.0 0.0 -0.0 -1.60777 -10.1901 1.56122 -5.066 18.1206 -75.0036 0.182187 5.15712 -0.00820472 -0.561683 0.0201287 -0.068907 0.293589 -16.5495 -8.56194 0.0 0.0 0.0 1.90983 27.2018 -8.60161 -14.9678 0.321627 2.26794 40.6205 9.5372 -4.92717 -16.9587 0.0 0.0 -0.0 0.0 -0.0 -4.83759 12.6493 -7.42774 -4.436 -0.157056 -0.662507 37.0219 -0.472276 4.60697 -25.1707 0.0 0.0 0.0 0.0 0.0 
3566.17009001 740.604 -1474.80215393 72.7351602466 86.1791826562 -70.5677070476 -0.111633 0.0741484 -1.07539 -0.111 0.142424 -1.06849 -0.113439 0.365868 -1.01396 -0.114818 0.20115 -1.05901 -1.93769 -4.48963 1.24855 -1.88361 -9.09474 0.729499 -0.0 0.0 -0.0 3.77529 6.42815 7.5795 8.63248 -28.1938 68.057 1.31724 -33.1238 0.391749 -7.43007 -0.320269 0.89357 1.68917 9.47589 14.9675 -0.0 0.0 -0.0 -1.60777 -10.1901 1.56122 -5.066 18.1206 -75.0036 0.182187 5.15712 -0.00820472 -0.561683 0.0201287 -0.068907 0.293589 -16.5495 -8.56194 0.0 0.0 0.0 1.90983 27.2018 -8.60161 -14.9678 0.321627 2.26794 40.6205 9.5372 -4.92717 -16.9587 0.0 0.0 -0.0 0.0 -0.0 -4.83759 12.6493 -7.42774 -4.436 -0.157056 -0.662507 37.0219 -0.472276 4.60697 -25.1707 0.0 0.0 0.0 0.0 0.0 
3566.18711012 740.604 -1475.26455136 40.0567126064 84.3253012255 -37.7868358871 -0.111633 0.0741484 -1.07539 -0.111 0.142424 -1.06849 -0.113439 0.365868 -1.01396 -0.114818 0.20115 -1.05901 -1.93769 -4.48963 1.24855 -1.88361 -9.09474 0.729499 -0.0 0.0 -0.0 3.77529 6.42815 7.5795 8.63248 -28.1938 68.057 1.31724 -33.1238 0.391749 -7.43007 -0.320269 0.89357 1.68917 9.47589 14.9675 -0.0 0.0 -0.0 -1.60777 -10.1901 1.56122 -5.066 18.1206 -75.0036 0.182187 5.15712 -0.00820472 -0.561683 0.0201287 -0.068907 0.293589 -16.5495 -8.56194 0.0 0.0 0.0 1.90983 27.2018 -8.60161 -14.9678 0.321627 2.26794 40.6205 9.5372 -4.92717 -16.9587 0.0 0.0 -0.0 0.0 -0.0 -4.83759 12.6493 -7.42774 -4.436 -0.157056 -0.662507 37.0219 -0.472276 4.60697 -25.1707 0.0 0.0 0.0 0.0 0.0 
3553.57604477 740.016 -1484.29904444 33.1544842002 81.6284320597 -30.8407836193 -0.228032 -0.0360902 -1.01578 -0.227458 0.0286161 -1.01601 -0.227693 0.245466 -0.986334 -0.229041 0.0866209 -1.01272 -2.72748 -5.01129 0.578272 -2.68301 -9.54457 -0.102925 -0.0 0.0 -0.0 3.29611 9.1924 6.83837 7.51692 -28.6788 68.0548 1.54403 -37.4087 0.522785 -6.90913 -0.294054 0.832322 1.94587 5.0091 15.0598 -0.0 0.0 -0.0 -0.903354 -8.22441 0.61864 -4.34853 16.8516 -74.6923 0.201435 5.69854 -0.0100254 -0.217305 0.0077074 -0.0266818 -0.0392989 -21.5133 -8.40967 0.0 0.0 0.0 1.92492 26.2856 -8.84959 -17.3607 0.31772 2.63504 39.9226 9.69724 -4.86749 -18.0654 0.0 0.0 -0.0 0.0 -0.0 -6.15709 13.3658 -7.70662 -4.83197 -0.168571 -0.722185 37.818 -0.196134 4.68179 -25.5917 0.0 0.0 0.0 0.0 0.0 
3548.41297255 734.899 -1494.70954351 31.0779552911 80.9263051737 -28.6796150862 -0.456801 -0.0475622 -1.03762 -0.456202 0.0185573 -1.03855 -0.456214 0.244493 -1.00953 -0.457628 0.0819971 -1.03547 -5.26301 -3.55305 0.580296 -5.25149 -6.97474 -0.0381019 -0.0 0.0 -0.0 2.20062 10.0935 4.98378 5.94513 -31.9981 68.3902 1.63074 -38.929 0.576374 -4.86894 -0.196788 0.590269 2.23185 1.57904 15.7108 -0.0 0.0 -0.0 -0.0487669 -5.32935 -0.544587 -0.644794 16.1804 -74.8572 0.187643 5.31067 -0.0087024 0.324607 -0.011324 0.0399101 -0.224079 -25.2737 -8.7466 0.0 0.0 0.0 1.25928 20.9267 -8.55605 -18.5853 0.309792 2.82276 39.5555 10.3682 -4.84003 -19.2753 0.0 0.0 -0.0 0.0 -0.0 -6.58658 14.4259 -8.33175 -4.8454 -0.168954 -0.72421 39.7565 3.5939 4.89107 -26.4441 0.0 0.0 0.0 0.0 0.0 
3534.7027168 731.493 -1504.19256675 38.1951588267 80.5305339488 -35.6319182539 -0.585971 -0.0301938 -1.08974 -0.585311 0.0392065 -1.08946 -0.585691 0.278132 -1.05409 -0.587226 0.108178 -1.08478 -8.00412 -2.28545 1.32674 -8.00038 -5.20315 0.81781 -0.0 0.0 -0.0 1.48142 10.6589 3.79132 2.99981 -34.6232 68.1415 1.52264 -37.0237 0.509846 -2.8821 -0.110423 0.351408 2.21422 -0.848887 14.6251 -0.0 0.0 -0.0 0.827954 -3.83375 -1.99212 2.94238 16.0377 -74.8189 0.198161 5.6065 -0.00970299 0.657176 -0.0226909 0.0808641 -0.333761 -27.165 -8.837 0.0 0.0 0.0 2.81442 15.0907 -8.16294 -19.295 0.303361 2.93146 40.223 12.272 -4.91696 -20.3817 0.0 0.0 -0.0 0.0 -0.0 -7.93722 14.3736 -8.92441 -6.42994 -0.210835 -0.963768 39.6333 4.36571 4.89072 -25.6834 0.0 0.0 0.0 0.0 0.0 
3536.23793379 731.493 -1506.15666453 29.632437689 78.1264700544 -26.9209839548 -0.585971 -0.0301938 -1.08974 -0.585311 0.0392065 -1.08946 -0.585691 0.278132 -1.05409 -0.587226 0.108178 -1.08478 -8.00412 -2.28545 1.32674 -8.00038 -5.20315 0.81781 -0.0 0.0 -0.0 1.48142 10.6589 3.79132 2.99981 -34.6232 68.1415 1.52264 -37.0237 0.509846 -2.8821 -0.110423 0.351408 2.21422 -0.848887 14.6251 -0.0 0.0 -0.0 0.827954 -3.83375 -1.99212 2.94238 16.0377 -74.8189 0.198161 5.6065 -0.00970299 0.657176 -0.0226909 0.0808641 -0.333761 -27.165 -8.837 0.0 0.0 0.0 2.81442 15.0907 -8.16294 -19.295 0.303361 2.93146 40.223 12.272 -4.91696 -20.3817 0.0 0.0 -0.0 0.0 -0.0 -7.93722 14.3736 -8.92441 -6.42994 -0.210835 -0.963768 39.6333 4.36571 4.89072 -25.6834 0.0 0.0 0.0 0.0 0.0 
3527.98018196 730.169 -1512.14368522 46.0375566667 80.7064459874 -43.6955500555 -0.919931 0.0421426 -0.988464 -0.919393 0.104953 -0.983779 -0.9209 0.324473 -0.934646 -0.922078 0.172798 -0.974156 -8.07449 -0.357785 3.33936 -8.04203 -3.0266 3.23043 -0.0 0.0 -0.0 0.507837 9.65971 2.02339 0.655336 -35.9125 69.1695 1.28443 -32.4659 0.373978 -2.31724 -0.0873882 0.282973 1.85777 -1.50494 11.904 -0.0 0.0 -0.0 2.29594 0.0908303 -4.4159 6.99079 15.6551 -74.0186 0.211042 5.96839 -0.0110019 1.65355 -0.0553189 0.203941 -0.21969 -27.1933 -9.48306 0.0 0.0 0.0 8.28343 10.3852 -8.07652 -26.7244 0.155527 4.06116 41.2383 14.6068 -5.03613 -19.461 0.0 0.0 -0.0 0.0 -0.0 -10.6392 14.0262 -9.35042 -4.69394 -0.164604 -0.701373 39.7405 6.05884 4.92593 -24.2312 0.0 0.0 0.0 0.0 0.0 
